<svg xmlns="http://www.w3.org/2000/svg" width="30.377" height="30.376" viewBox="0 0 30.377 30.376">
  <g id="Group_3564" data-name="Group 3564" transform="translate(-4914.77 -3113.236) rotate(-45)">
    <path id="left-arrow" d="M5.489.178a.6.6,0,0,1,.848.839l-4.3,4.3H16.224a.6.6,0,0,1,.6.594.6.6,0,0,1-.6.6H2.038l4.3,4.291a.609.609,0,0,1,0,.848.594.594,0,0,1-.848,0L.172,6.334a.6.6,0,0,1,0-.839Z" transform="translate(1258.964 5692.223)" fill="#fff" stroke="#fff" stroke-width="0.6"/>
    <path id="left-arrow-2" data-name="left-arrow" d="M5.489.178a.6.6,0,0,1,.848.839l-4.3,4.3H16.224a.6.6,0,0,1,.6.594.6.6,0,0,1-.6.6H2.038l4.3,4.291a.609.609,0,0,1,0,.848.594.594,0,0,1-.848,0L.172,6.334a.6.6,0,0,1,0-.839Z" transform="translate(1288.79 5704.052) rotate(180)" fill="#fff" stroke="#fff" stroke-width="0.6"/>
  </g>
</svg>
