<svg
  width="24"
  height="24"
  viewBox="0 0 24 24"
  xmlns="http://www.w3.org/2000/svg"
><path
    d="M18 10.586l2.293-2.293a1 1 0 0 1 1.414 1.414l-6 6a1 1 0 0 1-1.414-1.414L16.586 12l-2.293-2.293a1 1 0 1 1 1.414-1.414L18 10.586zM4 10v5a1 1 0 0 1-2 0V9a1 1 0 0 1 1-1h2.65l4.725-3.78A1 1 0 0 1 12 5v14a1 1 0 0 1-1.625.78l-5-4a1 1 0 1 1 1.25-1.56L10 16.92V7.08l-3.375 2.7A1 1 0 0 1 6 10H4zm15.293 4.707a1 1 0 0 1 1.414-1.414l1 1a1 1 0 0 1-1.414 1.414l-1-1z"
    fill="#fff"
    fill-rule="nonzero"
  /></svg>
