<svg
  width="24"
  height="24"
  viewBox="0 0 24 24"
  xmlns="http://www.w3.org/2000/svg"
><path
    d="M17.657 6.343A1 1 0 0 1 19.07 4.93c3.905 3.905 3.905 10.237 0 14.142a1 1 0 0 1-1.414-1.414 8 8 0 0 0 0-11.314zm-2.829 2.829a1 1 0 1 1 1.415-1.415 6 6 0 0 1 0 8.486 1 1 0 0 1-1.415-1.415 4 4 0 0 0 0-5.656zM4 10v5a1 1 0 0 1-2 0V9a1 1 0 0 1 1-1h2.65l4.725-3.78A1 1 0 0 1 12 5v14a1 1 0 0 1-1.625.78l-5-4a1 1 0 1 1 1.25-1.56L10 16.92V7.08l-3.375 2.7A1 1 0 0 1 6 10H4z"
    fill="#0030d0"
    fill-rule="nonzero"
  /></svg>
